<svg width="175" height="204" viewBox="0 0 175 204" fill="none" xmlns="http://www.w3.org/2000/svg">
<path d="M62.9658 7.76456C81.6039 0.044416 102.113 -1.97582 121.899 1.95987C140.376 5.63509 157.447 14.3493 171.242 27.1025C172.864 28.6022 172.859 31.1412 171.297 32.7033L150.083 53.9166C148.521 55.4787 145.996 55.4681 144.34 54.0066C135.885 46.5478 125.59 41.4382 114.485 39.2294C102.071 36.7601 89.2021 38.028 77.5078 42.872C65.8136 47.716 55.8184 55.9187 48.7861 66.4433C41.7537 76.968 38 89.3419 38 102C38 114.658 41.7537 127.032 48.7861 137.557C55.8184 148.081 65.8136 156.284 77.5078 161.128C89.2021 165.972 102.071 167.24 114.485 164.77C125.589 162.562 135.885 157.452 144.34 149.993C145.996 148.532 148.521 148.521 150.083 150.083L171.297 171.296C172.859 172.859 172.864 175.398 171.242 176.897C157.447 189.65 140.376 198.365 121.899 202.04C102.113 205.976 81.6039 203.955 62.9658 196.235C44.328 188.515 28.3982 175.442 17.1904 158.668C5.98254 141.894 1.78555e-05 122.174 0 102C-1.24247e-06 81.8262 5.98254 62.1057 17.1904 45.3319C28.3982 28.5583 44.328 15.4847 62.9658 7.76456Z" fill="#132D88"/>
<path d="M100.077 68.739C100.629 66.8041 103.371 66.8041 103.923 68.739L109.108 86.9064C109.404 87.9443 110.47 88.56 111.517 88.2975L129.843 83.7039C131.795 83.2147 133.166 85.5894 131.767 87.035L118.625 100.609C117.875 101.384 117.875 102.616 118.625 103.391L131.766 116.965C133.166 118.411 131.795 120.785 129.843 120.296L111.517 115.702C110.47 115.44 109.404 116.056 109.108 117.094L103.923 135.261C103.371 137.196 100.629 137.196 100.077 135.261L94.892 117.094C94.5958 116.056 93.5295 115.44 92.4825 115.702L74.1567 120.296C72.205 120.785 70.834 118.411 72.2335 116.965L85.3746 103.391C86.1253 102.616 86.1253 101.384 85.3746 100.609L72.2335 87.035C70.834 85.5894 72.205 83.2147 74.1567 83.7039L92.4825 88.2975C93.5295 88.56 94.5958 87.9443 94.892 86.9064L100.077 68.739Z" fill="#F28B30"/>
</svg>
