<svg width="16" height="16" viewBox="0 0 16 16" fill="none" xmlns="http://www.w3.org/2000/svg">
<path d="M11.0065 7.25C11.4207 7.25 11.7565 7.58579 11.7565 8V8.00651C11.7565 8.42072 11.4207 8.75651 11.0065 8.75651H11C10.5858 8.75651 10.25 8.42072 10.25 8.00651V8C10.25 7.58579 10.5858 7.25 11 7.25H11.0065Z" fill="#898989"/>
<path d="M8.00651 7.25C8.42072 7.25 8.75651 7.58579 8.75651 8V8.00651C8.75651 8.42072 8.42072 8.75651 8.00651 8.75651H8C7.58579 8.75651 7.25 8.42072 7.25 8.00651V8C7.25 7.58579 7.58579 7.25 8 7.25H8.00651Z" fill="#898989"/>
<path d="M5.00651 7.25C5.42072 7.25 5.75651 7.58579 5.75651 8V8.00651C5.75651 8.42072 5.42072 8.75651 5.00651 8.75651H5C4.58579 8.75651 4.25 8.42072 4.25 8.00651V8C4.25 7.58579 4.58579 7.25 5 7.25H5.00651Z" fill="#898989"/>
<path d="M13.5 8C13.5 4.96243 11.0376 2.5 8 2.5C4.96243 2.5 2.5 4.96243 2.5 8C2.5 8.91 2.72046 9.76728 3.11068 10.5221C3.16313 10.6237 3.17923 10.7402 3.15625 10.8522L2.64128 13.3581L5.14779 12.8438L5.23242 12.8333C5.3172 12.8306 5.40167 12.85 5.47786 12.8893C6.23272 13.2795 7.09 13.5 8 13.5C11.0376 13.5 13.5 11.0376 13.5 8ZM14.5 8C14.5 11.5899 11.5899 14.5 8 14.5C6.9901 14.5 6.0328 14.2693 5.17904 13.8574L2.10026 14.4896C1.93569 14.5233 1.76528 14.4723 1.64648 14.3535C1.52769 14.2347 1.47671 14.0643 1.51042 13.8997L2.14193 10.8203C1.73029 9.96674 1.5 9.00959 1.5 8C1.5 4.41015 4.41015 1.5 8 1.5C11.5899 1.5 14.5 4.41015 14.5 8Z" fill="#898989"/>
</svg>
