<svg width="16" height="16" viewBox="0 0 16 16" fill="none" xmlns="http://www.w3.org/2000/svg">
<path d="M8.18982 3.81022C9.69388 2.63426 11.8732 2.73838 13.2575 4.12272C14.7544 5.61971 14.7544 8.0463 13.2575 9.54329L9.48669 13.3148C8.77073 14.0307 7.60955 14.0307 6.89359 13.3148L3.12276 9.54329C1.62575 8.04628 1.62575 5.61973 3.12276 4.12272C4.507 2.73847 6.68576 2.63452 8.18982 3.81022ZM12.5505 4.82975C11.444 3.72326 9.64982 3.72326 8.54333 4.82975C8.34805 5.02476 8.03148 5.02493 7.8363 4.82975C6.72981 3.72326 4.93627 3.72326 3.82979 4.82975C2.7233 5.93624 2.7233 7.72977 3.82979 8.83626L7.60062 12.6077C7.926 12.9331 8.45356 12.933 8.77901 12.6077L12.5505 8.83626C13.6569 7.72979 13.6569 5.93622 12.5505 4.82975Z" fill="#898989"/>
</svg>
