<svg width="200" height="66" viewBox="0 0 200 66" fill="none" xmlns="http://www.w3.org/2000/svg">
<path d="M161.27 30.0271V19.7762H200V30.0271H191.515V65.0006H169.756V30.0271H161.27Z" fill="#132D88"/>
<path d="M136.979 19.7762H158.798V65.0006H136.979V19.7762Z" fill="#132D88"/>
<path d="M87.9912 19.4144C97.8101 19.4144 108.235 26.8312 110.114 36.3585C111.932 26.9518 122.357 19.4144 132.176 19.4144V65.0006H115.993C116.114 64.5182 116.175 64.0359 116.175 63.4932C116.175 60.1767 113.508 57.4632 110.114 57.4632C106.78 57.4632 104.053 60.1767 104.053 63.4932C104.053 64.0359 104.114 64.5182 104.235 65.0006H87.9912V19.4144Z" fill="#132D88"/>
<path d="M67.5518 48.3581C70.946 48.3581 73.6128 45.6446 73.6128 42.3281C73.6128 39.0117 70.946 36.2982 67.5518 36.2982C64.2182 36.2982 61.4908 39.0117 61.4908 42.3281C61.4908 45.6446 64.2182 48.3581 67.5518 48.3581ZM61.8545 65.6036C49.3082 65.6036 39.0651 56.1367 39.0651 42.3884C39.0651 28.5799 49.3082 19.1732 61.8545 19.1732C74.4007 19.1732 84.6438 28.5799 84.6438 42.3884C84.6438 56.1367 74.4007 65.6036 61.8545 65.6036Z" fill="#132D88"/>
<path d="M32.0021 37.3836C31.0323 36.7203 29.8201 36.2982 28.4867 36.2982C25.1532 36.2982 22.4257 39.0117 22.4257 42.3281C22.4257 45.6446 25.1532 48.3581 28.4867 48.3581C29.8808 48.3581 31.093 47.936 32.1233 47.1521L40.0026 57.9456C35.8205 62.7696 29.6383 65.6036 22.7894 65.6036C10.2431 65.6036 0 56.1367 0 42.3884C0 28.5799 10.2431 19.1732 22.7894 19.1732C29.5777 19.1732 35.6993 21.947 39.8814 26.6503L32.0021 37.3836Z" fill="#132D88"/>
<path d="M147.352 0.364595C147.492 -0.121531 148.184 -0.121532 148.324 0.364594L149.633 4.9291C149.708 5.18988 149.977 5.34456 150.242 5.27862L154.87 4.12449C155.363 4.00158 155.709 4.59821 155.355 4.96142L152.037 8.37181C151.847 8.56664 151.847 8.876 152.037 9.07084L155.355 12.4812C155.709 12.8444 155.363 13.4411 154.87 13.3182L150.242 12.164C149.977 12.0981 149.708 12.2528 149.633 12.5135L148.324 17.078C148.184 17.5642 147.492 17.5642 147.352 17.0781L146.043 12.5135C145.968 12.2528 145.699 12.0981 145.435 12.164L140.807 13.3182C140.314 13.4411 139.967 12.8444 140.321 12.4812L143.639 9.07084C143.829 8.876 143.829 8.56664 143.639 8.37181L140.321 4.96142C139.967 4.59821 140.314 4.00158 140.807 4.12449L145.435 5.27862C145.699 5.34456 145.968 5.18988 146.043 4.9291L147.352 0.364595Z" fill="#F28B30"/>
</svg>
