<svg width="16" height="16" viewBox="0 0 16 16" fill="none" xmlns="http://www.w3.org/2000/svg">
<path d="M12.8332 12C12.8332 10.8033 11.8631 9.83329 10.6665 9.83329H5.33317C4.13655 9.83329 3.1665 10.8033 3.1665 12C3.1665 12.4602 3.5396 12.8333 3.99984 12.8333H11.9998C12.4601 12.8333 12.8332 12.4602 12.8332 12ZM9.49984 4.66663C9.49984 3.8382 8.82826 3.16663 7.99984 3.16663C7.17141 3.16663 6.49984 3.8382 6.49984 4.66663C6.49984 5.49505 7.17141 6.16663 7.99984 6.16663C8.82826 6.16663 9.49984 5.49505 9.49984 4.66663ZM13.8332 12C13.8332 13.0125 13.0124 13.8333 11.9998 13.8333H3.99984C2.98732 13.8333 2.1665 13.0125 2.1665 12C2.1665 10.2511 3.58427 8.83329 5.33317 8.83329H10.6665C12.4154 8.83329 13.8332 10.2511 13.8332 12ZM10.4998 4.66663C10.4998 6.04734 9.38055 7.16663 7.99984 7.16663C6.61913 7.16663 5.49984 6.04734 5.49984 4.66663C5.49984 3.28591 6.61913 2.16663 7.99984 2.16663C9.38055 2.16663 10.4998 3.28591 10.4998 4.66663Z" fill="#898989"/>
</svg>
