<svg width="16" height="16" viewBox="0 0 16 16" fill="none" xmlns="http://www.w3.org/2000/svg">
<path d="M7.99986 2.83331C11.3352 2.83331 13.9979 4.91438 15.132 7.81834C15.1776 7.93522 15.1776 8.06474 15.132 8.18162C13.9979 11.0856 11.3352 13.1666 7.99986 13.1666C4.66449 13.1666 2.00178 11.0856 0.867702 8.18162C0.822094 8.06474 0.822094 7.93522 0.867702 7.81834C2.00178 4.91438 4.66449 2.83331 7.99986 2.83331ZM7.99986 3.83331C5.18545 3.83331 2.90953 5.53833 1.87291 7.99998C2.90953 10.4616 5.18545 12.1666 7.99986 12.1666C10.8142 12.1666 13.0895 10.4615 14.1262 7.99998C13.0895 5.53846 10.8142 3.83331 7.99986 3.83331ZM9.49986 7.99998C9.49986 7.17155 8.82829 6.49998 7.99986 6.49998C7.17144 6.49998 6.49986 7.17155 6.49986 7.99998C6.49986 8.82841 7.17144 9.49998 7.99986 9.49998C8.82829 9.49998 9.49986 8.82841 9.49986 7.99998ZM10.4999 7.99998C10.4999 9.38069 9.38057 10.5 7.99986 10.5C6.61915 10.5 5.49986 9.38069 5.49986 7.99998C5.49986 6.61927 6.61915 5.49998 7.99986 5.49998C9.38057 5.49998 10.4999 6.61927 10.4999 7.99998Z" fill="#898989"/>
</svg>
